<?xml version="1.0" encoding="utf-8"?>
<!-- Generator: Adobe Illustrator 15.0.2, SVG Export Plug-In . SVG Version: 6.00 Build 0)  -->
<!DOCTYPE svg PUBLIC "-//W3C//DTD SVG 1.1//EN" "http://www.w3.org/Graphics/SVG/1.1/DTD/svg11.dtd">
<svg version="1.1" id="Layer_1" xmlns="http://www.w3.org/2000/svg" xmlns:xlink="http://www.w3.org/1999/xlink" x="0px" y="0px"
	 width="1190.55px" height="841.891px" viewBox="0 0 {width} {height}" preserveAspectRatio="none slice" enable-background="new 0 0 1190.55 841.891"
	 xml:space="preserve">
<rect y="0" width="1190.55" height="841.891"/>
<g opacity="0.5">
	<path fill="#FFFFFF" d="M128.66,51.721c5.369,0,10.737,0,16.107,0c24.071,58.968,48.215,117.853,72.247,176.864
		c-3.649,0-7.297,0-10.946,0c-5.918-15.431-12.063-31.759-18.141-47.539c-1.588-4.124-2.559-7.989-6.099-10.165
		c-5.104-1.455-13.543-0.938-20.955-0.938c-17.515,0-35.862-0.001-53.168,0c-4.683,0-10.797-0.633-14.387,0.782
		c-4.059,1.6-4.704,6.063-6.255,10.32c-5.688,15.613-11.694,31.832-17.358,47.539c-3.023,0-6.047,0-9.07,0
		C83.261,169.586,105.776,110.463,128.66,51.721z M126.939,66.421c-3.55,16.758-8.219,28.237-13.761,43.316
		c-4.806,13.078-8.703,23.539-13.293,35.654c-1.455,3.841-4.175,8.898-4.065,12.354c0.103,3.236,2.284,6.271,4.848,7.351
		c4.519,1.9,12.64,0.938,19.078,0.938c11.254,0,22.401,0,33.464,0c5.563,0,11.905,0.67,16.89,0c3.538-0.474,6.303-2.388,7.349-5.003
		c1.487-3.718,0.23-6.403-1.094-10.008c-5.536-15.064-10.51-28.33-16.264-43.317c-5.153-13.424-9.042-23.548-13.449-37.531
		c-2.129-6.758-3.2-15.26-11.259-14.542C128.626,56.232,128.167,60.624,126.939,66.421z"/>
	<path fill="#FFFFFF" d="M789.046,51.721c0,3.491,0,6.984,0,10.478c-2.293,0-4.586,0-6.879,0c0-3.493,0-6.985,0-10.478
		C784.46,51.721,786.753,51.721,789.046,51.721z"/>
	<path fill="#FFFFFF" d="M743.384,224.99c0.168,1.761,0.541,3.317,0.783,5.004c-13.869,1.488-28.467,0.278-31.588-11.103
		c-0.904-3.288-1.057-7.66-1.252-11.886c-0.586-12.561-0.156-26.241-0.156-39.251c-0.002-13.436,0-26.169,0-39.407
		c0-8.647,1.324-18.095-4.691-20.799c-2.59-1.165-6.912-0.688-11.104-0.938c-1.107-0.066-1.547,0.301-1.721-0.625
		c-0.295-1.57,2.211-0.939,3.91-0.939c8.229,0,12.74-1.231,13.605-8.443c0.701-5.875,0-15.436,0-22.363c0-2.499-0.592-5.613,0-7.35
		c0.332-0.983,6.027-3.884,6.723-4.223c0,5.429,0,11.104,0,16.89c0,5.617-0.592,11.555,0,16.889
		c0.537,4.825,3.266,8.008,8.602,8.601c4.24,0.472,9.348-0.469,14.074,0c0.867,0.086,1.096-0.201,1.25,0.626
		c0.281,1.492-2.293,0.938-3.127,0.938c-8.482,0-17.277-1.048-19.859,4.691c-1.625,3.612-0.939,10.938-0.939,16.42
		c0.002,21.04-0.002,41.661,0,63.333c0.002,8.728-0.051,17.757,2.189,23.145c1.535,3.688,4.934,6.997,8.758,8.757
		C732.675,224.721,737.808,225.396,743.384,224.99z"/>
	<path fill="#FFFFFF" d="M1081.945,164.47c-27.064,0-56.521,0-84.287,0c-8.309,0-16.689-0.973-19.393,4.535
		c-1.779,3.63-0.646,9.125,0.156,13.762c1.666,9.613,4.318,17.712,8.914,24.396c6.145,8.937,13.686,16.14,25.021,19.392
		c6.123,1.756,12.838,2.943,19.547,2.345c20.113-1.794,31.539-12.709,38.471-28.148c2.477,0.442,5.25,0.587,7.66,1.096
		c0.088,0.898-0.621,2.095-1.25,3.283c-8.688,16.397-23.41,26.584-48.791,26.584c-25.273,0-42.646-10.553-51.449-28.93
		c-2.176-4.545-4.271-9.428-5.314-14.856c-3.297-17.159-1.928-38.962,3.908-53.013c5.752-13.852,16.203-24.238,30.65-29.712
		c5.127-1.941,10.879-2.977,17.359-3.284c20.754-0.979,34.223,6.388,43.785,16.89
		C1076.718,129.556,1081.796,144.496,1081.945,164.47z M1013.921,106.454c-3.291,0.781-6.094,1.866-8.602,3.127
		c-10.605,5.333-17.998,13.067-22.52,24.552c-2.73,6.938-7.748,22.908,0.313,26.741c4.102,1.95,13.826,0.939,20.174,0.938
		c18.262-0.002,34.941,0.001,53.012,0c4.697,0,9.781,0.429,12.824-0.938c6.035-2.713,4.621-10.859,3.127-17.671
		c-0.73-3.333-1.559-6.554-2.658-9.696c-1.982-5.662-5.984-11.343-9.539-15.168c-7.377-7.941-20.049-14.698-35.811-13.605
		C1020.671,104.981,1017.316,105.648,1013.921,106.454z"/>
	<path fill="#FFFFFF" d="M782.322,105.046c2.242,0,4.482,0,6.725,0c0,41.181,0,82.359,0,123.54c-2.293,0-4.586,0-6.879,0
		c0-41.022,0-82.046,0-123.069C782.154,105.294,782.14,105.073,782.322,105.046z"/>
	<path fill="#FFFFFF" d="M831.583,105.046c2.293,0,4.586,0,6.879,0c9.549,26.252,18.971,53.306,28.619,80.066
		c2.314,6.426,4.576,13.388,6.723,20.486c1.375,4.542,1.9,8.716,5.787,10.79c4.537,1.756,9.559-0.118,11.416-3.752
		c0.973-1.906,1.449-4.688,2.189-7.038c10.557-33.617,25.008-68.214,36.125-100.553c2.135,0,4.273,0,6.408,0
		c-15.563,41.201-31.17,82.364-46.758,123.54c-3.543,0-7.088,0-10.631,0c-15.611-41-31.186-82.031-46.758-123.069
		C831.474,105.389,831.339,105.087,831.583,105.046z"/>
	<path fill="#FFFFFF" d="M78.618,304.117c2.867,0,5.733,0,8.601,0c0,19.318,0,38.913,0,58.33c0,19.537-0.831,39.222,0.313,57.86
		c1.147,18.688,5.19,33.418,15.169,43.004c9.726,9.344,23.874,14.701,43.474,14.699c18.444,0,34.469-5.226,43.786-14.543
		c9.545-9.547,13.532-25.345,14.7-43.474c1.186-18.434,0.468-38.126,0.468-57.704c0-19.359,0-38.975,0-58.173
		c2.919,0,5.838,0,8.757,0c0,30.914,0,61.885,0,92.889c0,20.477-0.429,41.292-6.567,55.357c-3.153,7.228-7.525,12.813-13.293,17.672
		c-11.272,9.498-26.249,14.232-47.695,14.23c-20.657-0.002-37.453-4.291-48.321-13.605c-11.396-9.768-16.656-23.696-18.609-43.315
		c-1.911-19.191-0.938-40.262-0.938-60.988c0-20.622,0-41.075,0-61.771C78.448,304.364,78.436,304.143,78.618,304.117z"/>
	<path fill="#FFFFFF" d="M327.417,357.442c-0.76,2.314-1.624,4.525-2.502,6.723c-9.653-3.622-23.949-2.285-30.337,3.441
		c2.848-4.895,7.322-11.378,14.229-12.979C315.611,353.05,322.497,355.34,327.417,357.442z"/>
	<path fill="#FFFFFF" d="M270.182,357.442c1.46,0,2.918,0,4.378,0c-0.399,10.755-0.912,22.301,10.008,20.797
		c-12.291,24.512-6.183,67.418-7.662,102.741c-2.293,0-4.587,0-6.881,0c0-41.023,0-82.046,0-123.069
		C270.012,357.689,270,357.468,270.182,357.442z"/>
	<path fill="#FFFFFF" d="M661.599,357.442c1.459,0,2.918,0,4.379,0c-0.076,8.092-0.855,16.564,4.691,18.922
		c1.873,0.224,3.67,1.247,5.629,0.468c-7.666,11.826-7.977,29.106-7.977,48.166c0,18.486,0,37.943,0,55.982
		c-2.293,0-4.586,0-6.879,0c0-41.023,0-82.046,0-123.069C661.429,357.689,661.416,357.468,661.599,357.442z"/>
	<path fill="#FFFFFF" d="M77.211,556.671c2.867,0,5.733,0,8.601,0c-0.001,50.213,0.002,102.372,0,153.405
		c0,4.625-0.32,9.152,0.782,12.668c2.198,5.537,9.527,4.849,17.358,4.849c25.197-0.004,52.345,0,77.095,0c0,1.979,0,3.961,0,5.94
		c-34.664,0-69.327,0-103.992,0c0-58.797,0-117.6,0-176.396C77.041,556.916,77.029,556.695,77.211,556.671z"/>
	<path fill="#FFFFFF" d="M232.495,556.671c0,3.491,0,6.983,0,10.475c-2.293,0-4.587,0-6.881,0c0-3.49,0-6.982,0-10.475
		C227.907,556.671,230.201,556.671,232.495,556.671z"/>
	<path fill="#FFFFFF" d="M436.256,556.671c2.242,0,4.483,0,6.726,0c-0.001,13.997,0,30.68,0,45.506
		c0,6.553-1.04,14.537,0.938,19.078c1.374,3.153,5.879,5.709,10.165,4.065c0.232,0.521-0.731,1.17-1.251,1.875
		c-1.497,2.033-3.147,4.328-4.378,6.881c-4.979,10.314-5.473,24.31-5.474,39.564c-0.001,19.752,0,40.565,0,59.893
		c-2.295,0-4.588,0-6.882,0c0-58.797,0-117.6,0-176.396C436.087,556.916,436.074,556.695,436.256,556.671z"/>
	<path fill="#FFFFFF" d="M668.636,556.671c0,3.491,0,6.983,0,10.475c-2.293,0-4.588,0-6.881,0c0-3.49,0-6.982,0-10.475
		C664.048,556.671,666.343,556.671,668.636,556.671z"/>
	<path fill="#FFFFFF" d="M623.13,729.936c0.166,1.764,0.537,3.32,0.781,5.006c-13.867,1.488-28.466,0.277-31.589-11.104
		c-0.901-3.287-1.055-7.66-1.25-11.886c-0.586-12.561-0.157-26.242-0.157-39.25c0.001-13.438,0-26.17,0-39.41
		c0-8.646,1.324-18.094-4.69-20.797c-2.59-1.164-6.913-0.688-11.104-0.938c-1.107-0.064-1.546,0.301-1.721-0.625
		c-0.294-1.568,2.212-0.938,3.909-0.938c8.23,0,12.741-1.229,13.604-8.444c0.703-5.875,0-15.435,0-22.361c0-2.498-0.59-5.613,0-7.35
		c0.335-0.984,6.029-3.886,6.724-4.224c0,5.43,0,11.104,0,16.889c0,5.619-0.592,11.558,0,16.89c0.535,4.826,3.264,8.008,8.602,8.602
		c4.242,0.47,9.348-0.471,14.074,0c0.867,0.086,1.096-0.201,1.252,0.625c0.279,1.492-2.295,0.938-3.129,0.938
		c-8.48,0-17.277-1.047-19.859,4.692c-1.625,3.611-0.939,10.938-0.939,16.418c0,21.041,0,41.662,0,63.334
		c0,8.729-0.051,17.759,2.189,23.146c1.535,3.688,4.934,6.998,8.758,8.758C612.419,729.669,617.554,730.344,623.13,729.936z"/>
	<path fill="#FFFFFF" d="M225.771,609.994c2.241,0,4.483,0,6.724,0c0,41.181,0,82.359,0,123.539c-2.293,0-4.587,0-6.881,0
		c0-41.022,0-82.047,0-123.069C225.601,610.24,225.588,610.021,225.771,609.994z"/>
	<path fill="#FFFFFF" d="M661.912,609.994c2.24,0,4.482,0,6.725,0c0,41.181,0,82.359,0,123.539c-2.293,0-4.588,0-6.881,0
		c0-41.022,0-82.047,0-123.069C661.742,610.24,661.73,610.021,661.912,609.994z"/>
	<path fill="#FFFFFF" d="M721.96,609.994c1.459,0,2.92,0,4.379,0c-0.076,8.093-0.855,16.564,4.691,18.922
		c1.873,0.226,3.67,1.248,5.629,0.47c-7.668,11.826-7.973,29.104-7.975,48.166c0,18.483,0.002,37.94,0,55.981
		c-2.295,0-4.588,0-6.881,0c0-41.022,0-82.047,0-123.069C721.791,610.24,721.779,610.021,721.96,609.994z"/>
	<path fill="#FFFFFF" d="M333.203,120.215c5.995,2.358,11.058-1.776,11.728-7.818c0.504-4.538,0-9.838,0-15.169
		c0-14.413,0-31.897,0-45.506c2.243,0,4.483,0,6.726,0c0,58.955,0,117.908,0,176.864c-1.721,0-3.44,0-5.161,0
		c0.302-7.59,0.227-14.515-4.691-16.732c-2.086-0.418-4.466-1.264-6.411-0.156c15.915-19.771,15.267-71.461-1.719-90.7
		C333.494,120.85,332.512,120.235,333.203,120.215z"/>
	<path fill="#FFFFFF" d="M326.635,220.142c-2.651,3.782-6.63,6.323-10.945,8.288c-4.686,2.132-9.835,3.283-16.265,3.283
		c-12.688,0-22.268-3.956-29.556-9.539c-14.365-11.007-22.988-29.938-22.987-55.201c0.001-24.893,7.427-45.233,22.206-55.984
		c7.632-5.551,17.176-9.377,30.025-9.069c12.54,0.301,20.365,4.949,27.209,11.886c1.016,0.851,0.142,0.253,0,0.155
		c-3.019-2.066-6.229-4.454-9.853-5.941c-4.273-1.755-9.913-3.074-14.699-3.284c-11.688-0.514-20.967,3.901-27.367,8.758
		c-14.11,10.709-18.979,28.604-20.016,52.23c-0.499,11.348,1.625,22.508,4.691,31.433c3.11,9.052,8.504,16.267,14.7,21.423
		c6.397,5.324,14.874,10.004,25.646,10.478c5.854,0.257,11.051-1.024,15.638-2.501C319.548,225.108,323.243,223.018,326.635,220.142
		z"/>
	<path fill="#FFFFFF" d="M410.923,130.536c-2.228-0.326-4.558-0.549-6.724-0.938c5.073-15.85,18.68-24.257,37.374-26.741
		c19.788-2.631,42.307-0.788,52.855,9.226c2.958,2.807,4.651,5.999,6.101,10.007c1.493,4.135,1.613,8.558,1.875,14.074
		c0.483,10.166,0.156,21.454,0.156,31.902c0,21.121-0.657,43.789,3.44,60.519c-2.241,0-4.483,0-6.725,0
		c-1.875-3.676-0.998-8.662-2.658-12.51c-1.822-4.223-8.236-6.146-12.51-2.972c1.627-2.749,3.97-5.134,5.785-8.444
		c3.246-5.917,5.104-14.713,5.475-23.457c0.245-5.797,1.117-13.862-0.782-18.297c-1.078-2.516-4.234-4.615-7.506-4.691
		c-3.376-0.078-7.294,2.144-10.479,3.127c-10.4,3.22-21.8,4.548-33.777,6.568c-7.621,1.287-15.396,2.673-21.11,5.786
		c-5.587,3.044-10.563,7.889-12.979,13.918c-3.171,7.91-2.848,17.905,0.625,24.864c3.976,7.966,11.258,13.438,21.11,15.794
		c9.846,2.352,21.813,2.232,31.902-1.407c-15.015,7.11-40.208,6.723-52.543-2.19c-4.97-3.59-9.564-9.489-11.259-16.419
		c-2.589-10.584,0.639-20.688,5.004-26.74c8.005-11.098,22.557-14.804,39.563-16.891c12.065-1.479,24.909-3.417,36.28-6.099
		c7.641-1.801,15.124-2.421,16.108-10.633c0.985-8.239-0.439-17.68-3.128-24.083c-5.444-12.964-21.479-19.078-39.251-19.078
		c-13.866,0-26.915,3.574-34.092,11.572C415.509,120.26,412.887,125.15,410.923,130.536z"/>
	<path fill="#FFFFFF" d="M580.438,114.898c6.688-8.148,15.668-12.979,29.555-12.979c13.996,0,23.977,4.31,31.588,11.104
		c10.871,9.7,17.793,24.852,19.393,44.881c0.521,6.532,0.738,13.811-0.313,20.329c-1.26,7.806-3.953,15.445-6.881,22.05
		c-6.018,13.574-14.467,23.245-29.086,28.773c-6.658,2.518-16.307,3.819-25.334,1.877c-8.36-1.8-14.288-6.776-19.705-11.886
		c4.988,4.242,11.846,7.479,20.017,9.228c8.459,1.808,18.15,0.113,24.865-2.971c3.086-1.419,5.99-4.016,8.602-6.256
		c7.771-6.671,13.689-16.233,16.732-27.365c1.049-3.847,2.078-7.713,2.971-11.729c0.949-4.278,0.938-8.931,0.938-13.762
		c0-9.177-0.973-17.976-3.129-26.271c-1.959-7.545-5.295-13.878-9.852-19.704c-4.324-5.53-9.902-10.324-16.264-13.135
		c-6.865-3.035-16.449-4.321-24.865-2.346C591.641,106.621,585.722,109.934,580.438,114.898z"/>
	<path fill="#FFFFFF" d="M575.747,215.294c-2.215-1.246-5.117-1.15-7.663-0.313c-6.362,2.764-4.848,13.218-4.848,22.832
		c0,14.257,0,30.796,0,44.566c-2.293,0-4.587,0-6.88,0c0-59.111,0-118.222,0-177.333c1.615,0,3.23,0,4.848,0
		c0.098,4.594-0.408,9.79,0.781,13.293c1.578,3.773,7.41,5.916,11.885,3.597c0.188-0.218,0.062-0.014,0,0.156
		c-17.369,19.889-17.513,75.089,2.034,93.045C576.078,215.462,576.072,215.469,575.747,215.294z"/>
	<path fill="#FFFFFF" d="M379.96,371.829c-8.537,9.322-14.7,25.334-14.699,44.567c0,17.006,1.875,33.293,8.756,43.785
		c0.479,0.729,1.063,1.483,1.564,2.19c0.405,0.57,1.145,1.072,1.095,1.878c-4.226-1.439-8.712,0.336-10.321,3.907
		c-1.54,3.42-0.693,8.021-0.938,12.822c-1.72,0-3.439,0-5.16,0c0-58.955,0-117.908,0-176.863c2.293,0,4.587,0,6.88,0
		c0,12.663,0.001,30.966,0,45.193c0,9.386-1.528,20.317,4.849,22.986C374.487,373.346,377.793,373.022,379.96,371.829z"/>
	<path fill="#FFFFFF" d="M385.902,473.162c3.553,2.646,7.275,4.931,11.886,6.257c4.757,1.366,10.119,2.407,15.951,1.875
		c10.652-0.972,18.972-5.373,25.334-10.945c12.003-10.515,19.642-30.265,18.607-53.795c-1.051-23.939-6.912-40.676-21.268-51.292
		c-6.223-4.603-16.162-9.394-27.835-8.132c-10.361,1.119-17.234,4.979-23.771,10.164c0.257-0.203-0.932,1.077-0.47,0.156
		c6.718-7.124,13.97-12.098,26.272-12.979c12.776-0.916,22.998,2.653,31.119,7.818c7.564,4.811,13.088,12.994,17.045,22.205
		c4.102,9.55,6.255,20.296,6.255,32.841c0,26.726-7.662,43.912-22.206,56.296c-6.886,5.864-16.534,10.289-28.773,10.479
		C401.196,484.307,392.546,480.419,385.902,473.162z"/>
	<path fill="#FFFFFF" d="M516.01,382.932c-2.228-0.327-4.559-0.551-6.725-0.939c5.073-15.847,18.681-24.256,37.375-26.741
		c19.788-2.629,42.308-0.787,52.855,9.228c2.957,2.807,4.65,6,6.102,10.008c1.492,4.133,1.613,8.556,1.875,14.074
		c0.482,10.165,0.156,21.452,0.156,31.9c0,21.122-0.658,43.79,3.439,60.519c-2.242,0-4.482,0-6.725,0
		c-1.875-3.674-0.998-8.66-2.658-12.51c-1.822-4.224-8.236-6.146-12.51-2.972c1.627-2.75,3.97-5.135,5.786-8.444
		c3.242-5.91,5.103-14.715,5.472-23.457c0.246-5.795,1.119-13.859-0.781-18.296c-1.078-2.518-4.233-4.614-7.505-4.69
		c-3.376-0.08-7.295,2.143-10.478,3.127c-10.401,3.219-21.802,4.547-33.779,6.568c-7.621,1.286-15.396,2.674-21.11,5.785
		c-5.587,3.043-10.563,7.889-12.979,13.918c-3.17,7.912-2.849,17.905,0.625,24.864c3.976,7.966,11.257,13.439,21.11,15.793
		c9.845,2.354,21.813,2.234,31.902-1.405c-15.016,7.11-40.208,6.723-52.544-2.189c-4.969-3.592-9.563-9.49-11.258-16.42
		c-2.589-10.582,0.638-20.688,5.003-26.74c8.005-11.098,22.558-14.803,39.563-16.889c12.066-1.48,24.909-3.418,36.28-6.101
		c7.641-1.802,15.124-2.42,16.108-10.635c0.986-8.237-0.439-17.677-3.129-24.082c-5.445-12.965-21.477-19.077-39.25-19.078
		c-13.866-0.001-26.916,3.574-34.092,11.572C520.596,372.654,517.974,377.544,516.01,382.932z"/>
	<path fill="#FFFFFF" d="M758.554,480.98c-2.295,0-4.588,0-6.881,0c0.002-15.469-0.002-32.279,0-48.477
		c0.002-16.144,1.396-33.301-1.721-46.758c-1.555-6.712-3.787-12.051-7.818-16.419c-7.221-7.825-21.395-13.474-36.438-10.478
		c-5.914,1.178-11.209,2.816-15.639,5.473c-0.211,0.127-1.955,1.244-1.406,0.626c8.467-8.235,23.729-12.813,41.129-9.853
		c6.666,1.135,13.398,4.263,17.98,8.289c7.184,6.304,10.115,15.268,10.637,28.304C759.56,420.795,757.853,451.701,758.554,480.98z"
		/>
	<path fill="#FFFFFF" d="M378.083,609.994c1.669,0,3.336,0,5.004,0c0,23.902,0,48.648,0,73.187c0,23.795,1.508,50.002-2.188,70.996
		c-3.442,19.541-17.918,31.996-38,35.186c-23.084,3.666-46.896-1.096-56.454-14.545c-2.287-3.215-3.621-6.742-4.691-11.414
		c2.535,0.174,4.672,0.748,7.193,0.938c3.216,12.719,13.408,18.918,26.271,21.895c11.574,2.676,26.146,1.531,36.28-2.813
		c14.233-6.105,22.563-19.479,23.926-38.939c0.226-3.211,0.166-6.688,0.313-10.166c0.203-4.811,0.85-10.596-0.782-14.229
		c-0.771-1.718-2.299-2.589-3.753-3.91c-2.418-0.566-4.811-1.111-7.038,0c-0.096-0.689,0.562-1.267,0.938-1.722
		c7.181-8.676,11.474-21.393,12.511-36.592c2.099-30.737-7.868-53.531-27.681-63.49c-5.283-2.657-13.563-5.096-21.423-4.69
		c-11.637,0.598-20.698,5.473-27.367,11.729c-9.226,8.654-14.292,19.812-16.418,35.812c-2.079,15.631-0.176,33.307,4.847,45.818
		c4.583,11.418,14.693,21.688,26.896,25.334c6.739,2.012,15.163,3.133,22.832,1.407c7.152-1.61,13.241-3.731,18.14-7.977
		c0.311-0.31,0.688-0.31,0.157,0c-7.319,7.25-15.994,11.729-29.242,11.729c-13.47,0.002-23.385-3.768-30.807-10.164
		c-14.536-12.526-22.904-33.19-20.798-60.518c1.872-24.311,12.2-43.402,30.336-51.607c4.721-2.135,9.818-3.75,16.264-4.221
		c18.052-1.32,28.835,4.738,37.219,13.76c1.587,1.711,3.134,4.064,5.159,5.007c4.455,2.065,9.495-0.109,11.416-3.599
		C378.3,618.968,378.113,614.402,378.083,609.994z"/>
	<path fill="#FFFFFF" d="M533.525,733.533c-2.293,0-4.587,0-6.882,0c0.003-15.646-0.002-32.678,0-48.944
		c0.003-16.345,1.319-33.396-1.877-46.914c-3.132-13.254-11.223-22.285-23.455-25.334c-6.878-1.716-14.351-2.492-21.581-0.938
		c-6.499,1.396-11.497,3.685-16.421,6.566c-0.236,0.139-0.817,0.469-0.469,0c8.217-7.104,18.445-11.763,33.464-11.103
		c13.548,0.595,24.649,5.361,30.651,13.763c8.387,11.735,6.57,33.565,6.568,53.166C533.522,693.824,533.526,713.938,533.525,733.533
		z"/>
	<path fill="#FFFFFF" d="M818.916,733.533c-2.293,0-4.586,0-6.881,0c0-23.416,0-48.768,0-72.717c0-16.453-1.498-30.225-9.539-38.938
		c-7.219-7.824-21.396-13.474-36.438-10.478c-5.912,1.178-11.211,2.816-15.639,5.474c-0.211,0.127-1.955,1.241-1.406,0.625
		c8.471-8.234,23.729-12.813,41.129-9.853c6.666,1.135,13.4,4.262,17.982,8.289c7.182,6.307,10.113,15.266,10.635,28.303
		C819.921,673.346,818.214,704.255,818.916,733.533z"/>
	<path fill="#FFFFFF" d="M964.818,609.994c1.668,0,3.336,0,5.004,0c0.004,23.902-0.004,48.648,0,73.187
		c0.006,23.793,1.508,50.006-2.189,70.996c-3.441,19.541-17.918,31.996-38,35.186c-23.084,3.666-46.896-1.096-56.453-14.545
		c-2.285-3.215-3.619-6.742-4.691-11.414c2.537,0.174,4.672,0.748,7.193,0.938c3.217,12.719,13.406,18.918,26.271,21.895
		c11.574,2.676,26.146,1.531,36.281-2.813c14.234-6.105,22.561-19.478,23.926-38.939c0.227-3.211,0.166-6.688,0.313-10.166
		c0.203-4.813,0.852-10.596-0.781-14.229c-0.771-1.718-2.299-2.589-3.756-3.91c-2.416-0.566-4.809-1.111-7.035,0
		c-0.096-0.689,0.563-1.267,0.938-1.722c7.184-8.676,11.471-21.393,12.51-36.592c2.102-30.737-7.869-53.531-27.678-63.49
		c-5.283-2.657-13.563-5.096-21.424-4.69c-11.639,0.598-20.697,5.473-27.367,11.729c-9.227,8.654-14.291,19.812-16.42,35.812
		c-2.078,15.631-0.174,33.307,4.848,45.818c4.584,11.418,14.695,21.688,26.898,25.334c6.736,2.012,15.162,3.133,22.832,1.407
		c7.152-1.61,13.238-3.731,18.141-7.977c0.309-0.31,0.688-0.31,0.154,0c-7.32,7.25-15.992,11.729-29.242,11.729
		c-13.473,0.002-23.385-3.768-30.807-10.164c-14.537-12.528-22.9-33.188-20.799-60.518c1.869-24.309,12.205-43.402,30.338-51.607
		c4.721-2.135,9.818-3.75,16.264-4.221c18.053-1.32,28.836,4.738,37.219,13.76c1.586,1.711,3.133,4.064,5.16,5.007
		c4.453,2.065,9.494-0.109,11.416-3.599C965.033,618.968,964.847,614.402,964.818,609.994z"/>
</g>
</svg>
