<?xml version="1.0" encoding="utf-8"?>
<!-- Generator: Adobe Illustrator 15.0.2, SVG Export Plug-In . SVG Version: 6.00 Build 0)  -->
<!DOCTYPE svg PUBLIC "-//W3C//DTD SVG 1.1//EN" "http://www.w3.org/Graphics/SVG/1.1/DTD/svg11.dtd">
<svg version="1.1" id="Layer_2" xmlns="http://www.w3.org/2000/svg" xmlns:xlink="http://www.w3.org/1999/xlink" x="0px" y="0px"
	 width="480px" height="126px" viewBox="0 0 {width} {height}" preserveAspectRatio="none slice" enable-background="new 0 0 480 126" xml:space="preserve">
<g>
	<path fill-rule="evenodd" clip-rule="evenodd" fill="#CC0000" d="M143.28,32.4c-4.101,2.208-4.356-1.419-6.72-4.08
		c-6.742-7.588-22.656-8.56-31.2-1.44c-5.533,4.611-8.271,12.882-8.88,21.12c-1.437,19.437,5.433,38.147,26.4,36
		c9.327-0.955,13.625-6.348,17.76-14.16c1.064,0.136,1.623,0.777,2.88,0.72c-2.178,10.599-16.192,17.733-30.48,14.4
		c-9.453-2.205-17.286-10.87-19.68-20.64c-5.187-21.163,4.757-42.368,23.76-43.92C130.692,19.291,138.942,23.791,143.28,32.4z"/>
	<path fill-rule="evenodd" clip-rule="evenodd" fill="#CC0000" d="M40.56,21.84c2.64,0,5.28,0,7.92,0
		C56.766,42.594,64.926,63.475,73.44,84c-0.885,0.555-2.796,0.084-4.08,0.24c-1.146-2.991-1.849-5.395-3.12-8.641
		c-1.365-3.485-2.35-7.554-6.96-8.159c-3.628-0.478-9.451,0-14.88,0c-6.542,0-15.787-1.139-18.72,1.68
		c-3.218,3.092-3.757,10.907-6,15.12c-1.2,0-2.4,0-3.6,0C24.193,63.393,32.065,42.305,40.56,21.84z M36.96,37.2
		c-1.484,4.143-4.392,12.014-5.76,15.84c-0.584,1.632-2.698,5.824-2.4,8.4c0.708,6.126,8.516,4.8,15.36,4.8
		c3.322,0,10.322,0.725,12.96-0.721c4.71-2.58,1.384-9.134,0-12.959c-1.779-4.917-4.435-11.776-6-16.08
		c-1.324-3.639-2.522-9.002-7.92-8.16C38.858,28.998,38.123,33.954,36.96,37.2z"/>
	<path fill-rule="evenodd" clip-rule="evenodd" fill="#CC0000" d="M211.2,22.08c-0.748,1.334-2.89,0.72-4.32,0.72
		c-5.972,0-15.091-1.125-17.04,3.12c-1.099,18.501-0.175,39.025-0.48,58.32c-1.2,0-2.4,0-3.6,0c0-13.621,0-30.339,0-45.84
		c0-4.705,0.678-11.339-1.44-13.68c-4.02-4.445-14.062-0.219-20.4-2.4c-0.039-0.279,0.053-0.427,0.24-0.48
		C179.76,22,196,21.52,211.2,22.08z"/>
	<path fill-rule="evenodd" clip-rule="evenodd" fill="#CC0000" d="M231.6,21.84c1.12,0,2.24,0,3.36,0c0,20.8,0,41.6,0,62.4
		c-1.2,0-2.4,0-3.6,0c0-20.56,0-41.12,0-61.68C231.339,22.219,231.32,21.88,231.6,21.84z"/>
	<path fill-rule="evenodd" clip-rule="evenodd" fill="#CC0000" d="M259.2,21.84c4.292,13.519,8.967,26.282,13.68,40.32
		c1.144,3.405,2.337,10.445,5.04,12.72c1.839,1.547,5.486,1.878,7.68,0c2.771-2.372,3.85-9.413,5.04-12.96
		c4.501-13.407,9.06-27.561,13.2-40.08c1.28,0,2.561,0,3.84,0c-7.52,20.72-14.886,41.593-22.319,62.4c-2.721,0-5.44,0-8.16,0
		c-7.033-20.888-15.402-41.717-21.84-62.4C256.64,21.84,257.92,21.84,259.2,21.84z"/>
	<path fill-rule="evenodd" clip-rule="evenodd" fill="#CC0000" d="M328.32,21.84c1.12,0,2.239,0,3.359,0c0,20.8,0,41.6,0,62.4
		c-1.199,0-2.399,0-3.6,0c0-20.56,0-41.12,0-61.68C328.06,22.219,328.04,21.88,328.32,21.84z"/>
	<path fill-rule="evenodd" clip-rule="evenodd" fill="#CC0000" d="M399.12,22.08c-0.748,1.334-2.89,0.72-4.32,0.72
		c-5.972,0-15.092-1.125-17.04,3.12c-1.099,18.501-0.175,39.025-0.479,58.32c-1.2,0-2.4,0-3.601,0c0-13.621,0-30.339,0-45.84
		c0-4.705,0.678-11.339-1.439-13.68c-4.021-4.445-14.062-0.219-20.4-2.4c-0.039-0.279,0.053-0.427,0.24-0.48
		C367.68,22,383.92,21.52,399.12,22.08z"/>
	<path fill-rule="evenodd" clip-rule="evenodd" fill="#CC0000" d="M416.88,22.08c0.806-0.555,2.636-0.084,3.84-0.24
		c4.196,7.201,8.379,14.139,12.96,21.84c2.106,3.541,4.145,9.087,10.08,6.72c2.226-0.888,3.599-4.262,5.04-6.72
		c4.241-7.233,8.935-15.418,12.96-21.84c0.96,0,1.92,0,2.88,0c0.229,0.687-0.393,1.629-0.72,2.16
		c-4.873,7.91-10.05,15.877-15.36,24.24c-1.885,2.969-5.323,6.487-5.76,9.6c-1.1,7.838,0.813,17.292,0,26.4c-1.2,0-2.399,0-3.6,0
		c-1.346-9.486,2.028-19.672-0.48-27.36c-0.941-2.887-3.474-5.8-5.279-8.64c-5.421-8.524-10.855-17.167-16.08-25.68
		C417.1,22.5,417.197,22.083,416.88,22.08z"/>
	<path fill-rule="evenodd" clip-rule="evenodd" d="M43.2,28.32c5.397-0.842,6.596,4.521,7.92,8.16c1.565,4.304,4.221,11.163,6,16.08
		c1.384,3.826,4.71,10.379,0,12.959c-2.638,1.445-9.638,0.721-12.96,0.721c-6.845,0-14.653,1.326-15.36-4.8
		c-0.297-2.576,1.816-6.768,2.4-8.4c1.368-3.826,4.276-11.697,5.76-15.84C38.123,33.954,38.858,28.998,43.2,28.32z"/>
	<path fill-rule="evenodd" clip-rule="evenodd" fill="#CC0000" d="M23.76,90.48c2.378,6.021,5.042,11.759,7.2,18
		c-3.07,0.35-1.956-3.484-3.6-4.561c-3.128,0.151-6.868-0.309-9.6,0.24c-1.404,0.996-0.501,4.299-2.88,4.32
		c-0.153-2.525,1.68-5.402,2.88-8.4c1.267-3.165,2.41-6.474,3.6-9.6C22.16,90.48,22.96,90.48,23.76,90.48z M22.8,93.36
		c-2.269-0.248-3.262,6.994-4.08,8.88c1.358,1.115,6.322,1.115,7.68,0C25.711,100.411,24.693,93.566,22.8,93.36z"/>
	<path fill-rule="evenodd" clip-rule="evenodd" fill="#CC0000" d="M72,90.72c0.497,1-1.308,0.901-1.44,0.48
		C70.063,90.2,71.868,90.299,72,90.72z"/>
	<path fill-rule="evenodd" clip-rule="evenodd" fill="#CC0000" d="M101.52,90.72c0.497,1-1.308,0.901-1.44,0.48
		C99.583,90.2,101.388,90.299,101.52,90.72z"/>
	<path fill-rule="evenodd" clip-rule="evenodd" fill="#CC0000" d="M152.88,90.48c0.48,0,0.96,0,1.44,0
		c0.258,2.622-0.726,6.485,0.96,7.68c-2.106,1.813,0.01,7.85-1.44,10.32c-1.678-0.059-0.954-2.541-0.96-3.601
		c-0.022-4.117,0.017-9.512,0-13.68C152.88,90.96,152.88,90.72,152.88,90.48z"/>
	<path fill-rule="evenodd" clip-rule="evenodd" fill="#CC0000" d="M309.12,90.72c0.497,1-1.309,0.901-1.44,0.48
		C307.183,90.2,308.988,90.299,309.12,90.72z"/>
	<path fill-rule="evenodd" clip-rule="evenodd" fill="#CC0000" d="M362.16,90.48c0.479,0,0.96,0,1.439,0
		c0.258,2.622-0.726,6.485,0.96,7.68c-2.105,1.813,0.01,7.85-1.439,10.32c-1.679-0.059-0.954-2.541-0.96-3.601
		c-0.022-4.117,0.017-9.512,0-13.68C362.16,90.96,362.16,90.72,362.16,90.48z"/>
	<path fill-rule="evenodd" clip-rule="evenodd" fill="#CC0000" d="M432.48,90.72c0.496,1-1.309,0.901-1.44,0.48
		C430.543,90.2,432.349,90.299,432.48,90.72z"/>
	<path fill-rule="evenodd" clip-rule="evenodd" fill="#CC0000" d="M59.52,91.68c0.554,0.727,0.084,2.476,0.24,3.601
		c0.021,1.18,2.051,0.349,2.64,0.96c-0.114,1.086-2.418-0.018-2.64,0.96c0.63,4.01-1.908,11.188,2.88,11.04
		c-0.887,1.006-3.285,0.336-4.08-0.24c-0.868-2.812-0.333-7.026-0.48-10.56c-0.013-0.867-1.263-0.498-1.68-0.96
		c-0.016-0.896,1.509-0.252,1.68-0.961c0-0.96,0-1.92,0-2.88C58.732,92.492,59.204,92.164,59.52,91.68z"/>
	<path fill-rule="evenodd" clip-rule="evenodd" fill="#CC0000" d="M112.32,91.68c0.554,0.727,0.085,2.476,0.24,3.601
		c0.021,1.18,2.051,0.349,2.64,0.96c-0.114,1.086-2.418-0.018-2.64,0.96c0.63,4.01-1.908,11.188,2.88,11.04
		c-0.887,1.006-3.285,0.336-4.08-0.24c-0.868-2.812-0.333-7.026-0.48-10.56c-0.013-0.867-1.263-0.498-1.68-0.96
		c-0.017-0.896,1.509-0.252,1.68-0.961c0-0.96,0-1.92,0-2.88C111.532,92.492,112.004,92.164,112.32,91.68z"/>
	<path fill-rule="evenodd" clip-rule="evenodd" fill="#CC0000" d="M195.12,91.68c0.554,0.727,0.084,2.476,0.24,3.601
		c0.021,1.18,2.051,0.349,2.64,0.96c-0.114,1.086-2.418-0.018-2.64,0.96c0.63,4.01-1.908,11.188,2.88,11.04
		c-0.887,1.006-3.285,0.336-4.08-0.24c-0.868-2.812-0.333-7.026-0.48-10.56c-0.014-0.867-1.263-0.498-1.68-0.96
		c-0.017-0.896,1.509-0.252,1.68-0.961c0-0.96,0-1.92,0-2.88C194.332,92.492,194.804,92.164,195.12,91.68z"/>
	<path fill-rule="evenodd" clip-rule="evenodd" fill="#CC0000" d="M267.12,91.68c0.554,0.727,0.084,2.476,0.24,3.601
		c0.021,1.18,2.05,0.349,2.64,0.96c-0.114,1.086-2.418-0.018-2.64,0.96c0.63,4.01-1.908,11.188,2.88,11.04
		c-0.888,1.006-3.285,0.336-4.08-0.24c-0.868-2.812-0.333-7.026-0.48-10.56c-0.013-0.867-1.263-0.498-1.68-0.96
		c-0.017-0.896,1.509-0.252,1.68-0.961c0-0.96,0-1.92,0-2.88C266.332,92.492,266.804,92.164,267.12,91.68z"/>
	<path fill-rule="evenodd" clip-rule="evenodd" fill="#CC0000" d="M351.12,91.68c0.554,0.727,0.084,2.476,0.24,3.601
		c0.021,1.18,2.05,0.349,2.64,0.96c-0.114,1.086-2.418-0.018-2.64,0.96c0.63,4.01-1.908,11.188,2.88,11.04
		c-0.888,1.006-3.285,0.336-4.08-0.24c-0.868-2.812-0.333-7.026-0.48-10.56c-0.013-0.867-1.263-0.498-1.68-0.96
		c-0.017-0.896,1.509-0.252,1.68-0.961c0-0.96,0-1.92,0-2.88C350.332,92.492,350.804,92.164,351.12,91.68z"/>
	<path fill-rule="evenodd" clip-rule="evenodd" fill="#CC0000" d="M443.28,91.68c0.554,0.727,0.084,2.476,0.239,3.601
		c0.021,1.18,2.051,0.349,2.641,0.96c-0.114,1.086-2.418-0.018-2.641,0.96c0.631,4.01-1.907,11.188,2.881,11.04
		c-0.888,1.006-3.285,0.336-4.08-0.24c-0.868-2.812-0.334-7.026-0.48-10.56c-0.013-0.867-1.263-0.498-1.68-0.96
		c-0.017-0.896,1.509-0.252,1.68-0.961c0-0.96,0-1.92,0-2.88C442.492,92.492,442.964,92.164,443.28,91.68z"/>
	<path fill-rule="evenodd" clip-rule="evenodd" d="M26.4,102.24c-1.358,1.115-6.322,1.115-7.68,0c0.818-1.886,1.811-9.128,4.08-8.88
		C24.693,93.566,25.711,100.411,26.4,102.24z"/>
	<path fill-rule="evenodd" clip-rule="evenodd" fill="#CC0000" d="M48.96,98.64c-2.359-0.677-1.731-1.818-3.36-2.159
		c-7.79-1.635-7.653,14.114,0.48,11.279c1.477-0.515,1.226-1.699,2.88-2.399c0.339,2.5-3.161,3.869-6,3.359
		c-2.721-0.488-5.08-3.639-4.56-7.68C39.082,95.735,46.726,93.512,48.96,98.64z"/>
	<path fill-rule="evenodd" clip-rule="evenodd" fill="#CC0000" d="M163.68,108.48c-0.32,0-0.64,0-0.96,0
		c-1.711-3.89,2.021-13.222-4.8-12C164.526,92.922,164.545,103.014,163.68,108.48z"/>
	<path fill-rule="evenodd" clip-rule="evenodd" fill="#CC0000" d="M177.36,96c9.765-1.85,9.461,11.809,2.4,12.72
		C171.522,109.783,169.547,97.479,177.36,96z M181.68,107.04c3.542-2.809,1.738-11.1-3.6-10.32
		C169.928,97.911,175.139,112.226,181.68,107.04z"/>
	<path fill-rule="evenodd" clip-rule="evenodd" fill="#CC0000" d="M215.04,97.92c-1.686,0.084-4.922-2.951-8.16-0.72
		c-3.209,5.614,8.324,3.125,9.12,7.2c1.069,5.474-10.163,5.655-10.56,1.439c2.021-0.017,1.582,1.398,2.88,1.92
		c2.606,1.048,6.98-0.054,6.24-3.12c-0.781-3.236-9.253-1.301-9.36-5.52C205.095,95.003,213.421,94.628,215.04,97.92z"/>
	<path fill-rule="evenodd" clip-rule="evenodd" fill="#CC0000" d="M249.36,96c9.764-1.85,9.461,11.809,2.399,12.72
		C243.522,109.783,241.547,97.479,249.36,96z M249.12,107.76c7.313,2.716,8.882-12.188,0.96-11.04
		C244.962,97.462,244.527,106.054,249.12,107.76z"/>
	<path fill-rule="evenodd" clip-rule="evenodd" fill="#CC0000" d="M287.04,97.92c-1.686,0.084-4.922-2.951-8.16-0.72
		c-3.21,5.614,8.324,3.125,9.12,7.2c1.069,5.474-10.163,5.655-10.56,1.439c2.021-0.017,1.581,1.398,2.88,1.92
		c2.605,1.048,6.979-0.054,6.239-3.12c-0.781-3.236-9.252-1.301-9.359-5.52C277.096,95.003,285.421,94.628,287.04,97.92z"/>
	<path fill-rule="evenodd" clip-rule="evenodd" fill="#CC0000" d="M329.28,108.48c-0.32,0-0.641,0-0.96,0
		c-1.678-3.923,1.945-13.146-4.801-12C330.186,92.862,330.156,103.002,329.28,108.48z"/>
	<path fill-rule="evenodd" clip-rule="evenodd" fill="#CC0000" d="M372.96,108.48c-0.32,0-0.64,0-0.96,0
		c-1.711-3.89,2.021-13.222-4.8-12C373.806,92.922,373.825,103.014,372.96,108.48z"/>
	<path fill-rule="evenodd" clip-rule="evenodd" fill="#CC0000" d="M392.64,102c-3.04,0-6.08,0-9.12,0
		c-1.742,3.572,1.225,6.502,4.561,6c1.721-0.259,1.671-1.625,3.36-1.92c0.585,2.427-5.499,3.408-7.921,1.68
		c-0.904-0.646-1.95-2.465-2.159-3.6C379.652,94.903,392.313,92.346,392.64,102z M383.28,101.52c2.56,0,5.12,0,7.68,0
		C392.914,95.309,381.321,95.278,383.28,101.52z"/>
	<path fill-rule="evenodd" clip-rule="evenodd" fill="#CC0000" d="M421.68,98.64c-2.358-0.677-1.731-1.818-3.359-2.159
		c-7.79-1.635-7.653,14.114,0.479,11.279c1.477-0.515,1.227-1.699,2.88-2.399c0.339,2.5-3.16,3.869-6,3.359
		c-2.721-0.488-5.079-3.639-4.56-7.68C411.802,95.735,419.445,93.511,421.68,98.64z"/>
	<path fill-rule="evenodd" clip-rule="evenodd" fill="#CC0000" d="M72,96c-0.314,4.006,0.633,9.272-0.48,12.48
		c-1.668-0.134-0.96-3.754-0.96-5.521c0-2.207,0-4.473,0-6.24c0-0.239,0-0.479,0-0.72C71.04,96,71.52,96,72,96z"/>
	<path fill-rule="evenodd" clip-rule="evenodd" fill="#CC0000" d="M80.16,96c0.16,0,0.32,0,0.48,0c2.59,2.014,2.467,7.194,4.56,9.84
		c2.447,0.141,2.702-2.782,3.36-4.56c0.727-1.966,0.843-4.54,2.64-5.28c0.136,1.66-1.092,4.108-1.92,6.24
		c-0.854,2.197-1.802,4.395-2.64,6.24c-2.479,0.565-2.916-3.45-3.84-5.761C81.65,99.845,80.617,98.07,80.16,96z"/>
	<path fill-rule="evenodd" clip-rule="evenodd" fill="#CC0000" d="M101.52,96c-0.314,4.006,0.633,9.272-0.48,12.48
		c-1.668-0.134-0.96-3.754-0.96-5.521c0-2.207,0-4.473,0-6.24c0-0.239,0-0.479,0-0.72C100.56,96,101.04,96,101.52,96z"/>
	<path fill-rule="evenodd" clip-rule="evenodd" fill="#CC0000" d="M122.16,96c0.16,0,0.32,0,0.48,0
		c1.698,0.782,1.795,3.317,2.4,5.04c0.668,1.906,1.267,3.813,2.16,5.28c2.567,0.13,2.716-2.832,3.36-4.801
		c0.666-2.038,0.708-4.882,2.64-5.52c0.361,1.191-0.592,2.647-1.2,4.32c-1.099,3.021-3.158,12.199-5.76,13.68
		c-1.021,0.58-2.382,0.666-3.6,0.24C131.461,111.546,123.052,101.787,122.16,96z"/>
	<path fill-rule="evenodd" clip-rule="evenodd" fill="#CC0000" d="M224.64,96c0.24,0,0.48,0,0.72,0
		c1.082,0.199,0.118,2.442,1.92,1.92c-1.699,1.795-1.621,7.095,0.24,8.64c-2.717,0.403-0.702,5.539-1.68,7.681
		c-0.24,0-0.48,0-0.72,0c-1.116-4.884-0.163-11.838-0.48-17.521C224.64,96.48,224.64,96.24,224.64,96z"/>
	<path fill-rule="evenodd" clip-rule="evenodd" fill="#CC0000" d="M309.12,96c-0.314,4.006,0.633,9.272-0.48,12.48
		c-1.667-0.134-0.96-3.754-0.96-5.521c0-2.207,0-4.473,0-6.24c0-0.239,0-0.479,0-0.72C308.16,96,308.64,96,309.12,96z"/>
	<path fill-rule="evenodd" clip-rule="evenodd" fill="#CC0000" d="M318.24,96c0.479,0,0.96,0,1.439,0
		c-0.045,1.086-0.196,2.276,1.2,1.92c-1.716,2.125-0.675,7.006-0.96,10.561c-0.56,0-1.12,0-1.68,0
		C318.24,104.32,318.24,100.16,318.24,96z"/>
	<path fill-rule="evenodd" clip-rule="evenodd" fill="#CC0000" d="M432.48,96c-0.315,4.006,0.632,9.272-0.48,12.48
		c-1.668-0.134-0.96-3.754-0.96-5.521c0-2.207,0-4.473,0-6.24c0-0.239,0-0.479,0-0.72C431.52,96,432,96,432.48,96z"/>
	<path fill-rule="evenodd" clip-rule="evenodd" fill="#CC0000" d="M452.88,96c0.16,0,0.32,0,0.48,0
		c1.698,0.782,1.796,3.317,2.399,5.04c0.669,1.906,1.268,3.813,2.16,5.28c2.567,0.13,2.717-2.832,3.36-4.801
		c0.666-2.038,0.708-4.882,2.64-5.52c0.361,1.191-0.592,2.647-1.2,4.32c-1.099,3.021-3.157,12.199-5.76,13.68
		c-1.021,0.58-2.382,0.666-3.6,0.24C462.182,111.546,453.771,101.787,452.88,96z"/>
	<path fill-rule="evenodd" clip-rule="evenodd" d="M178.08,96.72c5.338-0.779,7.143,7.512,3.6,10.32
		C175.139,112.226,169.928,97.911,178.08,96.72z"/>
	<path fill-rule="evenodd" clip-rule="evenodd" d="M250.08,96.72c7.922-1.147,6.353,13.756-0.96,11.04
		C244.527,106.054,244.962,97.462,250.08,96.72z"/>
	<path fill-rule="evenodd" clip-rule="evenodd" d="M390.96,101.52c-2.56,0-5.12,0-7.68,0
		C381.321,95.278,392.914,95.309,390.96,101.52z"/>
	<path fill-rule="evenodd" clip-rule="evenodd" fill="#CC0000" d="M229.44,108c7.129,2.131,8.218-12.865,0.24-11.52
		C238.875,91.894,238.737,112.801,229.44,108z"/>
	<path fill-rule="evenodd" clip-rule="evenodd" d="M0.24,0C160.168,0,320.064,0,480,0c0,42,0,83.999,0,126
		c-160.009,0-319.99,0-480,0C0,84.24,0,42.48,0,0.72C-0.021,0.379-0.04,0.041,0.24,0z M117.12,20.4
		c-19.003,1.553-28.947,22.757-23.76,43.92c2.395,9.77,10.227,18.435,19.68,20.64c14.288,3.333,28.302-3.802,30.48-14.4
		c-1.257,0.058-1.816-0.584-2.88-0.72c-4.136,7.813-8.433,13.205-17.76,14.16c-20.967,2.147-27.837-16.563-26.4-36
		c0.609-8.238,3.347-16.509,8.88-21.12c8.544-7.12,24.458-6.148,31.2,1.44c2.364,2.661,2.619,6.289,6.72,4.08
		C138.942,23.791,130.692,19.291,117.12,20.4z M16.08,84.24c1.2,0,2.4,0,3.6,0c2.243-4.213,2.782-12.028,6-15.12
		c2.933-2.818,12.178-1.68,18.72-1.68c5.429,0,11.252-0.478,14.88,0c4.61,0.605,5.595,4.674,6.96,8.159
		c1.271,3.246,1.974,5.649,3.12,8.641c1.284-0.156,3.195,0.314,4.08-0.24c-8.514-20.525-16.674-41.406-24.96-62.16
		c-2.64,0-5.28,0-7.92,0C32.065,42.305,24.193,63.393,16.08,84.24z M164.16,21.84c-0.187,0.053-0.279,0.201-0.24,0.48
		c6.338,2.182,16.38-2.044,20.4,2.4c2.118,2.341,1.44,8.975,1.44,13.68c0,15.501,0,32.219,0,45.84c1.2,0,2.4,0,3.6,0
		c0.305-19.295-0.619-39.819,0.48-58.32c1.949-4.246,11.068-3.12,17.04-3.12c1.431,0,3.573,0.614,4.32-0.72
		C196,21.52,179.76,22,164.16,21.84z M231.36,22.56c0,20.56,0,41.12,0,61.68c1.2,0,2.4,0,3.6,0c0-20.801,0-41.6,0-62.4
		c-1.12,0-2.24,0-3.36,0C231.32,21.88,231.339,22.219,231.36,22.56z M255.36,21.84c6.438,20.683,14.807,41.513,21.84,62.4
		c2.72,0,5.439,0,8.16,0c7.434-20.807,14.8-41.68,22.319-62.4c-1.279,0-2.56,0-3.84,0c-4.141,12.52-8.699,26.673-13.2,40.08
		c-1.19,3.547-2.269,10.588-5.04,12.96c-2.193,1.878-5.841,1.547-7.68,0c-2.703-2.274-3.896-9.314-5.04-12.72
		c-4.713-14.039-9.388-26.802-13.68-40.32C257.92,21.84,256.64,21.84,255.36,21.84z M328.08,22.56c0,20.56,0,41.12,0,61.68
		c1.2,0,2.4,0,3.6,0c0-20.801,0-41.6,0-62.4c-1.12,0-2.239,0-3.359,0C328.04,21.88,328.06,22.219,328.08,22.56z M352.08,21.84
		c-0.188,0.053-0.279,0.201-0.24,0.48c6.339,2.182,16.38-2.044,20.4,2.4c2.117,2.34,1.439,8.975,1.439,13.68
		c0,15.501,0,32.219,0,45.84c1.2,0,2.4,0,3.601,0c0.305-19.295-0.619-39.819,0.479-58.32c1.948-4.246,11.068-3.12,17.04-3.12
		c1.431,0,3.572,0.614,4.32-0.72C383.92,21.52,367.68,22,352.08,21.84z M417.36,22.56c5.225,8.513,10.659,17.156,16.08,25.68
		c1.806,2.839,4.338,5.753,5.279,8.64c2.509,7.688-0.865,17.874,0.48,27.36c1.2,0,2.399,0,3.6,0c0.813-9.108-1.1-18.563,0-26.4
		c0.437-3.112,3.875-6.63,5.76-9.6c5.311-8.363,10.487-16.331,15.36-24.24c0.327-0.531,0.949-1.474,0.72-2.16c-0.96,0-1.92,0-2.88,0
		c-4.025,6.422-8.719,14.607-12.96,21.84c-1.441,2.458-2.814,5.832-5.04,6.72c-5.936,2.368-7.974-3.179-10.08-6.72
		c-4.581-7.701-8.764-14.64-12.96-21.84c-1.204,0.156-3.034-0.314-3.84,0.24C417.197,22.083,417.1,22.5,417.36,22.56z M21.36,90.48
		c-1.19,3.126-2.333,6.435-3.6,9.6c-1.2,2.998-3.033,5.875-2.88,8.4c2.379-0.021,1.476-3.324,2.88-4.32
		c2.732-0.549,6.472-0.089,9.6-0.24c1.645,1.076,0.53,4.91,3.6,4.561c-2.159-6.241-4.822-11.979-7.2-18
		C22.96,90.48,22.16,90.48,21.36,90.48z M70.56,91.2c0.132,0.421,1.937,0.52,1.44-0.48C71.868,90.299,70.063,90.2,70.56,91.2z
		 M100.08,91.2c0.132,0.421,1.937,0.52,1.44-0.48C101.388,90.299,99.583,90.2,100.08,91.2z M152.88,91.2
		c0.017,4.168-0.022,9.563,0,13.68c0.006,1.06-0.718,3.542,0.96,3.601c1.45-2.471-0.666-8.507,1.44-10.32
		c-1.686-1.194-0.702-5.058-0.96-7.68c-0.48,0-0.96,0-1.44,0C152.88,90.72,152.88,90.96,152.88,91.2z M307.68,91.2
		c0.132,0.421,1.938,0.52,1.44-0.48C308.988,90.299,307.183,90.2,307.68,91.2z M362.16,91.2c0.017,4.168-0.022,9.563,0,13.68
		c0.006,1.06-0.719,3.542,0.96,3.601c1.449-2.471-0.666-8.507,1.439-10.32c-1.686-1.194-0.702-5.058-0.96-7.68
		c-0.479,0-0.96,0-1.439,0C362.16,90.72,362.16,90.96,362.16,91.2z M431.04,91.2c0.132,0.421,1.937,0.52,1.44-0.48
		C432.349,90.299,430.543,90.2,431.04,91.2z M58.08,92.64c0,0.96,0,1.92,0,2.88c-0.171,0.709-1.696,0.064-1.68,0.961
		c0.417,0.462,1.667,0.093,1.68,0.96c0.146,3.533-0.388,7.748,0.48,10.56c0.795,0.576,3.193,1.246,4.08,0.24
		c-4.788,0.147-2.25-7.03-2.88-11.04c0.222-0.978,2.526,0.126,2.64-0.96c-0.589-0.611-2.62,0.22-2.64-0.96
		c-0.155-1.125,0.314-2.874-0.24-3.601C59.204,92.164,58.732,92.492,58.08,92.64z M110.88,92.64c0,0.96,0,1.92,0,2.88
		c-0.171,0.709-1.696,0.064-1.68,0.961c0.417,0.462,1.667,0.093,1.68,0.96c0.147,3.533-0.388,7.748,0.48,10.56
		c0.795,0.576,3.193,1.246,4.08,0.24c-4.788,0.147-2.25-7.03-2.88-11.04c0.222-0.978,2.526,0.126,2.64-0.96
		c-0.589-0.611-2.62,0.22-2.64-0.96c-0.155-1.125,0.314-2.874-0.24-3.601C112.004,92.164,111.532,92.492,110.88,92.64z
		 M193.68,92.64c0,0.96,0,1.92,0,2.88c-0.171,0.709-1.697,0.064-1.68,0.961c0.417,0.462,1.667,0.093,1.68,0.96
		c0.146,3.533-0.388,7.748,0.48,10.56c0.795,0.576,3.193,1.246,4.08,0.24c-4.788,0.147-2.25-7.03-2.88-11.04
		c0.222-0.978,2.526,0.126,2.64-0.96c-0.589-0.611-2.62,0.22-2.64-0.96c-0.155-1.125,0.314-2.874-0.24-3.601
		C194.804,92.164,194.332,92.492,193.68,92.64z M265.68,92.64c0,0.96,0,1.92,0,2.88c-0.171,0.709-1.696,0.064-1.68,0.961
		c0.417,0.462,1.667,0.093,1.68,0.96c0.147,3.533-0.388,7.748,0.48,10.56c0.795,0.576,3.192,1.246,4.08,0.24
		c-4.788,0.147-2.25-7.03-2.88-11.04c0.222-0.978,2.525,0.126,2.64-0.96c-0.59-0.611-2.619,0.22-2.64-0.96
		c-0.156-1.125,0.313-2.874-0.24-3.601C266.804,92.164,266.332,92.492,265.68,92.64z M349.68,92.64c0,0.96,0,1.92,0,2.88
		c-0.171,0.709-1.696,0.064-1.68,0.961c0.417,0.462,1.667,0.093,1.68,0.96c0.147,3.533-0.388,7.748,0.48,10.56
		c0.795,0.576,3.192,1.246,4.08,0.24c-4.788,0.147-2.25-7.03-2.88-11.04c0.222-0.978,2.525,0.126,2.64-0.96
		c-0.59-0.611-2.619,0.22-2.64-0.96c-0.156-1.125,0.313-2.874-0.24-3.601C350.804,92.164,350.332,92.492,349.68,92.64z
		 M441.84,92.64c0,0.96,0,1.92,0,2.88c-0.171,0.709-1.696,0.064-1.68,0.961c0.417,0.462,1.667,0.093,1.68,0.96
		c0.146,3.533-0.388,7.748,0.48,10.56c0.795,0.576,3.192,1.246,4.08,0.24c-4.788,0.147-2.25-7.03-2.881-11.04
		c0.223-0.978,2.526,0.126,2.641-0.96c-0.59-0.611-2.62,0.22-2.641-0.96c-0.155-1.125,0.314-2.874-0.239-3.601
		C442.964,92.164,442.492,92.492,441.84,92.64z M38.4,101.04c-0.52,4.041,1.839,7.191,4.56,7.68c2.839,0.51,6.339-0.859,6-3.359
		c-1.654,0.7-1.403,1.885-2.88,2.399c-8.133,2.835-8.27-12.914-0.48-11.279c1.628,0.341,1.001,1.482,3.36,2.159
		C46.726,93.512,39.082,95.735,38.4,101.04z M157.92,96.48c6.822-1.222,3.089,8.11,4.8,12c0.32,0,0.64,0,0.96,0
		C164.545,103.014,164.526,92.922,157.92,96.48z M179.76,108.72c7.061-0.911,7.365-14.569-2.4-12.72
		C169.547,97.479,171.522,109.783,179.76,108.72z M205.2,99.12c0.107,4.219,8.579,2.283,9.36,5.52c0.74,3.066-3.634,4.168-6.24,3.12
		c-1.298-0.521-0.859-1.937-2.88-1.92c0.397,4.216,11.629,4.034,10.56-1.439c-0.796-4.075-12.33-1.586-9.12-7.2
		c3.238-2.231,6.475,0.804,8.16,0.72C213.421,94.628,205.095,95.003,205.2,99.12z M229.68,96.48c7.978-1.346,6.889,13.65-0.24,11.52
		C238.737,112.801,238.875,91.894,229.68,96.48z M251.76,108.72c7.062-0.911,7.364-14.569-2.399-12.72
		C241.547,97.479,243.522,109.783,251.76,108.72z M277.2,99.12c0.107,4.219,8.578,2.283,9.359,5.52
		c0.74,3.066-3.634,4.168-6.239,3.12c-1.299-0.521-0.859-1.937-2.88-1.92c0.396,4.216,11.629,4.034,10.56-1.439
		c-0.796-4.075-12.33-1.586-9.12-7.2c3.238-2.231,6.475,0.804,8.16,0.72C285.421,94.628,277.096,95.003,277.2,99.12z M323.52,96.48
		c6.746-1.146,3.123,8.077,4.801,12c0.319,0,0.64,0,0.96,0C330.156,103.002,330.186,92.862,323.52,96.48z M367.2,96.48
		c6.821-1.222,3.089,8.11,4.8,12c0.32,0,0.64,0,0.96,0C373.825,103.014,373.806,92.922,367.2,96.48z M381.36,104.16
		c0.209,1.135,1.255,2.954,2.159,3.6c2.422,1.729,8.506,0.747,7.921-1.68c-1.689,0.295-1.64,1.661-3.36,1.92
		c-3.336,0.502-6.303-2.428-4.561-6c3.04,0,6.08,0,9.12,0C392.313,92.346,379.652,94.903,381.36,104.16z M411.12,101.04
		c-0.52,4.041,1.839,7.191,4.56,7.68c2.84,0.51,6.339-0.859,6-3.359c-1.653,0.7-1.403,1.885-2.88,2.399
		c-8.133,2.835-8.27-12.914-0.479-11.279c1.628,0.341,1.001,1.482,3.359,2.159C419.445,93.511,411.802,95.735,411.12,101.04z
		 M70.56,96c0,0.24,0,0.48,0,0.72c0,1.768,0,4.033,0,6.24c0,1.767-0.708,5.387,0.96,5.521c1.113-3.208,0.166-8.475,0.48-12.48
		C71.52,96,71.04,96,70.56,96z M82.8,102.72c0.925,2.311,1.362,6.326,3.84,5.761c0.837-1.846,1.786-4.043,2.64-6.24
		c0.828-2.132,2.056-4.58,1.92-6.24c-1.797,0.74-1.913,3.314-2.64,5.28c-0.658,1.777-0.913,4.7-3.36,4.56
		c-2.093-2.646-1.97-7.826-4.56-9.84c-0.16,0-0.32,0-0.48,0C80.617,98.07,81.65,99.845,82.8,102.72z M100.08,96
		c0,0.24,0,0.48,0,0.72c0,1.768,0,4.033,0,6.24c0,1.767-0.708,5.387,0.96,5.521c1.113-3.208,0.166-8.475,0.48-12.48
		C101.04,96,100.56,96,100.08,96z M122.64,114.24c1.218,0.426,2.58,0.34,3.6-0.24c2.602-1.48,4.661-10.659,5.76-13.68
		c0.608-1.673,1.561-3.129,1.2-4.32c-1.932,0.638-1.974,3.481-2.64,5.52c-0.644,1.969-0.793,4.931-3.36,4.801
		c-0.893-1.467-1.492-3.374-2.16-5.28c-0.604-1.723-0.702-4.258-2.4-5.04c-0.16,0-0.32,0-0.48,0
		C123.052,101.787,131.461,111.546,122.64,114.24z M224.64,96.72c0.317,5.683-0.636,12.637,0.48,17.521c0.24,0,0.48,0,0.72,0
		c0.979-2.142-1.037-7.277,1.68-7.681c-1.861-1.545-1.939-6.845-0.24-8.64c-1.802,0.522-0.838-1.721-1.92-1.92
		c-0.24,0-0.48,0-0.72,0C224.64,96.24,224.64,96.48,224.64,96.72z M307.68,96c0,0.24,0,0.48,0,0.72c0,1.768,0,4.033,0,6.24
		c0,1.767-0.707,5.387,0.96,5.521c1.113-3.208,0.166-8.475,0.48-12.48C308.64,96,308.16,96,307.68,96z M318.24,108.48
		c0.56,0,1.12,0,1.68,0c0.285-3.555-0.756-8.436,0.96-10.561c-1.396,0.356-1.245-0.834-1.2-1.92c-0.479,0-0.96,0-1.439,0
		C318.24,100.16,318.24,104.32,318.24,108.48z M431.04,96c0,0.24,0,0.48,0,0.72c0,1.768,0,4.033,0,6.24
		c0,1.767-0.708,5.387,0.96,5.521c1.112-3.208,0.165-8.475,0.48-12.48C432,96,431.52,96,431.04,96z M453.36,114.24
		c1.218,0.426,2.579,0.34,3.6-0.24c2.603-1.48,4.661-10.659,5.76-13.68c0.608-1.673,1.562-3.129,1.2-4.32
		c-1.932,0.638-1.974,3.481-2.64,5.52c-0.644,1.969-0.793,4.931-3.36,4.801c-0.893-1.467-1.491-3.374-2.16-5.28
		c-0.604-1.723-0.701-4.258-2.399-5.04c-0.16,0-0.32,0-0.48,0C453.771,101.787,462.182,111.546,453.36,114.24z"/>
</g>
</svg>
