<?xml version="1.0" encoding="utf-8"?>
<!-- Generator: Adobe Illustrator 15.0.2, SVG Export Plug-In . SVG Version: 6.00 Build 0)  -->
<!DOCTYPE svg PUBLIC "-//W3C//DTD SVG 1.1//EN" "http://www.w3.org/Graphics/SVG/1.1/DTD/svg11.dtd">
<svg version="1.1" xmlns="http://www.w3.org/2000/svg" xmlns:xlink="http://www.w3.org/1999/xlink" x="0px" y="0px"
	 width="211.75px" height="59px" viewBox="0 0 {width} {height}" preserveAspectRatio="none slice" enable-background="new 0 0 211.75 59" xml:space="preserve">
<g id="Layer_4">
	<rect fill-rule="evenodd" clip-rule="evenodd" width="211.75" height="59"/>
</g>
<g id="Background" display="none">
</g>
<g id="Guides" display="none">
</g>
<g id="Foreground">
	<g opacity="0.5">
		<g>
			<g>
				<rect x="161.821" y="10.869" width="36.741" height="35.49"/>
				<path fill="#FFFFFF" d="M193.933,46.359h-6.019l3.389-1.934L189,40.592l4.523-2.718l2.898,4.825l-3.4,2.043L193.933,46.359z
					 M194.415,10.869h4.147v12.372l-1.331,0.77l-3.016-5.02l3.717-2.233L194.415,10.869z M192.739,10.869l3.267,5.405l-3.721,2.235
					l4.473,7.444l1.805-1.109v21.515h-3.013l-0.629-1.116l3.434-2.063l-4.348-7.237l-6.935,4.167l2.287,3.806l-4.282,2.443h-1.838
					l-0.684-1.209l2.83-1.7l-2.416-4.021l-2.814,1.691l-1.026-1.708l2.814-1.691l-2.355-3.92l-2.814,1.691l-1.208-2.01l5.528-3.322
					l2.295,3.819l6.935-4.167l-4.469-7.438l-3.417,2.054L179.174,19l1.813-1.089l1.812,3.015l4.017-2.413l-1.812-3.015l1.809-1.087
					l1.812,3.016l4.021-2.416l-1.81-3.012L192.739,10.869z M161.821,46.359v-35.49h28.16L188.9,11.51l1.814,3.019l-1.608,0.966
					l-1.812-3.016l-4.222,2.537l1.812,3.015l-1.604,0.964l-1.812-3.016l-4.226,2.539l4.71,7.84l3.417-2.053l3.02,5.025l-4.523,2.718
					l-2.295-3.82L173.632,33l2.657,4.422l2.814-1.691l0.906,1.507l-2.814,1.691l2.477,4.121l2.814-1.691l0.966,1.608l-2.799,1.682
					l0.967,1.709H161.821z"/>
			</g>
		</g>
		<path fill-rule="evenodd" clip-rule="evenodd" fill="#FFFFFF" d="M151.67,38.701v2.765c0,1.737-1.104,2.384-2.147,2.384
			c-1.156,0-2.141-0.773-2.141-2.298v-2.851h0.573v2.836c0,1.23,0.746,1.769,1.568,1.769c0.781,0,1.574-0.483,1.574-1.818v-2.786
			H151.67z M143.696,43.277h2.417v0.508h-2.99v-5.084h0.573V43.277z M141.293,38.701v2.765c0,1.737-1.104,2.384-2.147,2.384
			c-1.156,0-2.14-0.773-2.14-2.298v-2.851h0.573v2.836c0,1.23,0.746,1.769,1.567,1.769c0.781,0,1.575-0.483,1.575-1.818v-2.786
			H141.293z M132.699,39.181c-1.175,0-2.091,0.898-2.091,2.063s0.917,2.063,2.091,2.063c1.174,0,2.077-0.897,2.077-2.063
			C134.775,40.078,133.873,39.181,132.699,39.181z M132.684,43.85c-1.499,0-2.678-1.145-2.678-2.606s1.179-2.606,2.678-2.606
			c1.506,0,2.692,1.145,2.692,2.606S134.19,43.85,132.684,43.85z M127.497,39.327l-0.127-0.044c-0.269-0.092-0.386-0.117-0.55-0.117
			c-0.464,0-0.686,0.249-0.686,0.9v0.306h0.624v0.472h-0.624v2.94h-0.537v-2.94h-0.595v-0.472h0.595v-0.435
			c0-0.892,0.631-1.301,1.215-1.301c0.21,0,0.367,0.041,0.624,0.144L127.497,39.327z M122.071,40.837c-0.674,0-1.18,0.52-1.18,1.245
			c0,0.718,0.506,1.238,1.18,1.238c0.667,0,1.173-0.52,1.173-1.238C123.245,41.363,122.738,40.837,122.071,40.837z M122.071,43.85
			c-0.994,0-1.739-0.762-1.739-1.767c0-1.012,0.744-1.774,1.739-1.774c0.995,0,1.731,0.763,1.731,1.774
			C123.803,43.087,123.066,43.85,122.071,43.85z M116.045,41.099v2.686h-0.572v-2.686l-2.011-2.398h0.71l1.59,1.883l1.583-1.883
			h0.71L116.045,41.099z M112.732,39.209h-1.836v4.576h-0.573v-4.576h-1.836v-0.508h4.245V39.209z M107.151,43.785h-0.573v-5.084
			h0.573V43.785z M104.712,39.624l-0.144-0.083c-0.496-0.283-0.737-0.36-1.049-0.36c-0.544,0-0.937,0.368-0.937,0.836
			c0,0.289,0.125,0.467,0.323,0.604c0.102,0.07,0.222,0.13,0.356,0.186c0.135,0.057,0.28,0.109,0.425,0.164
			c0.583,0.222,1.228,0.516,1.228,1.441c0,0.812-0.672,1.438-1.517,1.438c-0.425,0-0.866-0.152-1.308-0.446l-0.043-0.713l0.153,0.11
			c0.539,0.391,0.827,0.505,1.177,0.505c0.533,0,0.937-0.385,0.937-0.879c0-0.314-0.128-0.51-0.326-0.657
			c-0.101-0.076-0.221-0.14-0.354-0.199c-0.135-0.06-0.279-0.113-0.423-0.168c-0.578-0.221-1.227-0.493-1.227-1.371
			c0-0.785,0.682-1.395,1.502-1.395c0.398,0,0.787,0.105,1.179,0.32L104.712,39.624z M97.677,40.932h0.714
			c0.83,0,1.18-0.35,1.18-0.865c0-0.48-0.331-0.857-1.195-0.857h-0.7V40.932z M98.456,38.701c1.243,0,1.717,0.645,1.717,1.359
			c0,0.56-0.284,0.963-0.828,1.212c0.188,0.159,0.355,0.405,0.532,0.671l1.202,1.842h-0.675l-0.882-1.386
			c-0.58-0.912-0.74-0.959-1.281-0.959h-0.563v2.345h-0.573v-5.084H98.456z M95.455,39.209h-2.288v1.765h2.23v0.508h-2.23v1.794
			h2.345v0.508h-2.918v-5.084h2.861V39.209z M89.224,43.835h-0.236l-2.139-5.134h0.589l1.671,3.985l1.657-3.985h0.589L89.224,43.835
			z M85.586,43.785h-0.573v-5.084h0.573V43.785z M83.083,43.785h-0.456l-3.575-4.113v4.113h-0.572v-5.084h0.463l3.567,4.113v-4.113
			h0.573V43.785z M76.855,38.701v2.765c0,1.737-1.104,2.384-2.147,2.384c-1.156,0-2.14-0.773-2.14-2.298v-2.851h0.573v2.836
			c0,1.23,0.746,1.769,1.567,1.769c0.781,0,1.575-0.483,1.575-1.818v-2.786H76.855z M151.637,28.614c0,2.53-1.964,4.48-4.509,4.48
			c-2.544,0-4.539-1.95-4.539-4.48c0-2.53,1.994-4.479,4.539-4.479C149.673,24.135,151.637,26.084,151.637,28.614z M152.485,28.614
			c0-2.917-2.366-5.208-5.387-5.208c-3.006,0-5.357,2.292-5.357,5.208c0,2.917,2.352,5.209,5.357,5.209
			C150.119,33.823,152.485,31.531,152.485,28.614z M140.964,23.54h-8.408v0.655h3.81v9.494h0.789v-9.494h3.81V23.54z
			 M130.396,24.045c-0.789-0.432-1.563-0.64-2.351-0.64c-1.607,0-2.917,1.19-2.917,2.693c0,3.348,4.836,2.083,4.836,4.971
			c0,1.146-0.938,2.024-2.143,2.024c-0.789,0-1.429-0.268-2.56-1.087v0.923c0.893,0.595,1.771,0.893,2.604,0.893
			c1.652,0,2.946-1.22,2.946-2.783c0-3.557-4.836-2.262-4.836-4.971c0-1.101,0.923-1.935,2.143-1.935c0.7,0,1.235,0.178,2.277,0.774
			V24.045z M121.813,23.54h-0.789v10.149h0.789V23.54z M112.738,24.194h1.979c1.786,0,2.5,0.938,2.5,2.039
			c0,1.146-0.7,2.054-2.589,2.054h-1.89V24.194z M111.949,23.54v10.149h0.789v-4.747h1.935c2.634,0,3.393-1.414,3.393-2.723
			c0-1.458-0.938-2.679-3.318-2.679H111.949z M108.121,28.614c0,2.53-1.964,4.48-4.509,4.48c-2.545,0-4.539-1.95-4.539-4.48
			c0-2.53,1.994-4.479,4.539-4.479C106.157,24.135,108.121,26.084,108.121,28.614z M108.97,28.614c0-2.917-2.366-5.208-5.387-5.208
			c-3.006,0-5.357,2.292-5.357,5.208c0,2.917,2.351,5.209,5.357,5.209C106.604,33.823,108.97,31.531,108.97,28.614z M94.836,23.54
			h-0.789v10.149h0.789V23.54z M86.384,23.54h-0.789v10.149h5.804v-0.655h-5.015V23.54z M82.935,23.54h-0.952l-3.378,4.018
			l-3.394-4.018h-0.952l3.944,4.703v5.446h0.789v-5.446L82.935,23.54z M68.218,23.54h-0.789v8.869l-7.694-8.869h-0.669v10.149h0.789
			v-8.869l7.708,8.869h0.655V23.54z M54.69,23.54v5.581c0,2.887-1.741,3.974-3.467,3.974c-1.815,0-3.453-1.206-3.453-3.87V23.54
			h-0.789v5.714c0,3.051,1.949,4.569,4.241,4.569c2.068,0,4.256-1.265,4.256-4.747V23.54H54.69z M39.526,23.54h-0.789v10.149h5.804
			v-0.655h-5.015V23.54z M34.348,23.54v5.581c0,2.887-1.741,3.974-3.467,3.974c-1.815,0-3.453-1.206-3.453-3.87V23.54h-0.789v5.714
			c0,3.051,1.95,4.569,4.242,4.569c2.068,0,4.256-1.265,4.256-4.747V23.54H34.348z M22.606,28.614c0,2.53-1.964,4.48-4.509,4.48
			s-4.539-1.95-4.539-4.48c0-2.53,1.994-4.479,4.539-4.479S22.606,26.084,22.606,28.614z M23.454,28.614
			c0-2.917-2.366-5.208-5.387-5.208c-3.006,0-5.357,2.292-5.357,5.208c0,2.917,2.352,5.209,5.357,5.209
			C21.088,33.823,23.454,31.531,23.454,28.614z"/>
	</g>
</g>
</svg>
