<?xml version="1.0" encoding="utf-8"?>
<!-- Generator: Adobe Illustrator 15.0.2, SVG Export Plug-In . SVG Version: 6.00 Build 0)  -->
<!DOCTYPE svg PUBLIC "-//W3C//DTD SVG 1.1//EN" "http://www.w3.org/Graphics/SVG/1.1/DTD/svg11.dtd">
<svg version="1.1" id="Layer_1" xmlns="http://www.w3.org/2000/svg" xmlns:xlink="http://www.w3.org/1999/xlink" x="0px" y="0px"
	 width="261.018px" height="181.764px" viewBox="0 0 {width} {height}" preserveAspectRatio="none slice" enable-background="new 0 0 261.018 181.764"
	 xml:space="preserve">
<rect width="261.018" height="181.764"/>
<g>
	<g>
		<path fill="#FFFFFF" d="M99.964,96.669h-3.006l-9.065-22.83h4.573l5.975,16.32h0.082l5.853-16.32h4.574L99.964,96.669z"/>
		<path fill="#FFFFFF" d="M127.172,96.669v-3.543h-0.083c-1.648,2.801-4.656,4.119-7.745,4.119c-7.706,0-12.118-5.893-12.118-11.907
			c0-5.563,3.916-12.116,12.118-12.116c3.172,0,6.399,1.586,8.05,4.1l-0.222-0.27l1.128-3.213h3.156v22.83H127.172z M119.344,77.136
			c-5.276,0-7.831,4.574-7.831,8.157c0,4.124,3.254,8.034,7.787,8.034c4.492,0,7.955-3.665,7.955-8.034
			C127.255,80.432,123.751,77.136,119.344,77.136z"/>
		<path fill="#FFFFFF" d="M211.885,96.669v-3.543h-0.082c-1.648,2.801-4.656,4.119-7.746,4.119c-7.705,0-12.115-5.893-12.115-11.907
			c0-5.563,3.914-12.116,12.115-12.116c3.172,0,6.4,1.586,8.051,4.1l-0.223-0.27l1.129-3.213h3.156v22.83H211.885z M204.057,77.136
			c-5.275,0-7.83,4.574-7.83,8.157c0,4.124,3.256,8.034,7.787,8.034c4.492,0,7.955-3.665,7.955-8.034
			C211.969,80.432,208.465,77.136,204.057,77.136z"/>
		<path fill="#FFFFFF" d="M237.819,96.669v-3.543h-0.082c-1.648,2.801-4.656,4.119-7.746,4.119c-7.705,0-12.117-5.893-12.117-11.907
			c0-5.563,3.916-12.116,12.117-12.116c3.172,0,6.4,1.586,8.049,4.1l-0.221-0.27l1.129-3.213h3.156v22.83H237.819z M229.991,77.136
			c-5.275,0-7.832,4.574-7.832,8.157c0,4.124,3.256,8.034,7.789,8.034c4.49,0,7.953-3.665,7.953-8.034
			C237.901,80.432,234.399,77.136,229.991,77.136z"/>
		<path fill="#FFFFFF" d="M138.682,96.669h-4.285V66.176h4.285V96.669z"/>
		<path fill="#FFFFFF" d="M152.657,97.245c-7.666,0-12.322-6.388-12.322-12.156c0-6.22,5.234-11.866,12.322-11.866
			c6.922,0,12.32,5.438,12.32,11.951C164.977,90.733,160.403,97.245,152.657,97.245z M152.657,77.136
			c-4.822,0-8.035,3.998-8.035,8.078c0,4.12,3.252,8.113,8.035,8.113c4.615,0,8.033-3.829,8.033-8.154
			C160.69,81.134,157.475,77.136,152.657,77.136z"/>
		<path fill="#FFFFFF" d="M166.678,73.839h3.016l0.9,3.503h0.08c2.063-2.965,5.191-4.12,8.117-4.12c7.75,0,11.83,6.219,11.83,12.32
			c0,5.767-4.328,11.703-11.539,11.703c-4.779,0-7.168-2.433-8.035-3.875h-0.082v10.922h-4.287V73.839z M178.504,77.136
			c-4.49,0-7.621,3.873-7.621,8.078c0,4.614,3.42,8.113,7.744,8.113c4.039,0,7.707-3.212,7.707-8.034
			C186.334,81.217,183.163,77.136,178.504,77.136z"/>
	</g>
	<path fill="#FFFFFF" d="M66.548,101.146c-7.533,0-13.367,5.879-13.367,13.112c0,7.137,5.834,12.96,13.367,12.96
		c7.588,0,13.361-5.823,13.361-12.96C79.909,107.025,74.136,101.146,66.548,101.146z"/>
	<path fill="#FFFFFF" d="M66.548,70.298c-7.533,0-13.367,5.879-13.367,13.113c0,7.137,5.834,12.959,13.367,12.959
		c7.588,0,13.361-5.822,13.361-12.959C79.909,76.177,74.136,70.298,66.548,70.298z"/>
	<path fill="#FFFFFF" d="M34.147,70.298c-7.534,0-13.367,5.879-13.367,13.113c0,7.137,5.833,12.959,13.367,12.959
		c7.588,0,13.361-5.822,13.361-12.959C47.509,76.177,41.735,70.298,34.147,70.298z"/>
	<path fill="#FFFFFF" d="M66.341,39.605c-7.535,0-13.368,5.879-13.368,13.113c0,7.137,5.833,12.959,13.368,12.959
		c7.588,0,13.361-5.822,13.361-12.959C79.702,45.485,73.929,39.605,66.341,39.605z"/>
	<path fill="#FFFFFF" d="M98.741,41.804c-6.197,0-10.994,4.834-10.994,10.784c0,5.869,4.797,10.657,10.994,10.657
		c6.24,0,10.986-4.788,10.986-10.657C109.728,46.638,104.981,41.804,98.741,41.804z"/>
	<path fill="#FFFFFF" d="M127.874,47.242c-3.054,0-5.416,2.382-5.416,5.314c0,2.891,2.362,5.25,5.416,5.25
		c3.074,0,5.414-2.359,5.414-5.25C133.288,49.625,130.948,47.242,127.874,47.242z"/>
	<path fill="#FFFFFF" d="M66.548,139.194c-3.054,0-5.418,2.383-5.418,5.313c0,2.893,2.364,5.251,5.418,5.251
		c3.072,0,5.412-2.358,5.412-5.251C71.96,141.577,69.62,139.194,66.548,139.194z"/>
	<path fill="#FFFFFF" d="M98.485,108.901c-3.053,0-5.416,2.381-5.416,5.313c0,2.891,2.363,5.25,5.416,5.25
		c3.074,0,5.414-2.359,5.414-5.25C103.899,111.282,101.56,108.901,98.485,108.901z"/>
	<path fill="#FFFFFF" d="M34.147,104.438c-5.632,0-9.994,4.394-9.994,9.801c0,5.335,4.362,9.688,9.994,9.688
		c5.672,0,9.987-4.353,9.987-9.688C44.135,108.832,39.819,104.438,34.147,104.438z"/>
	<path fill="#FFFFFF" d="M34.146,48.659c-2.234,0-3.963,1.744-3.963,3.887c0,2.116,1.729,3.842,3.963,3.842
		c2.25,0,3.961-1.726,3.961-3.842C38.106,50.403,36.396,48.659,34.146,48.659z"/>
</g>
</svg>
